<svg width="30" height="33" viewBox="0 0 30 33" fill="none" xmlns="http://www.w3.org/2000/svg">
<path d="M15 16.5C13.625 16.5 12.4479 15.9615 11.4688 14.8844C10.4896 13.8073 10 12.5125 10 11C10 9.4875 10.4896 8.19271 11.4688 7.11563C12.4479 6.03854 13.625 5.5 15 5.5C16.375 5.5 17.5521 6.03854 18.5312 7.11563C19.5104 8.19271 20 9.4875 20 11C20 12.5125 19.5104 13.8073 18.5312 14.8844C17.5521 15.9615 16.375 16.5 15 16.5ZM5 27.5V23.65C5 22.8708 5.18229 22.1547 5.54688 21.5016C5.91146 20.8484 6.39583 20.35 7 20.0063C8.29167 19.2958 9.60417 18.763 10.9375 18.4078C12.2708 18.0526 13.625 17.875 15 17.875C16.375 17.875 17.7292 18.0526 19.0625 18.4078C20.3958 18.763 21.7083 19.2958 23 20.0063C23.6042 20.35 24.0885 20.8484 24.4531 21.5016C24.8177 22.1547 25 22.8708 25 23.65V27.5H5ZM7.5 24.75H22.5V23.65C22.5 23.3979 22.4427 23.1687 22.3281 22.9625C22.2135 22.7563 22.0625 22.5958 21.875 22.4813C20.75 21.8625 19.6146 21.3984 18.4688 21.0891C17.3229 20.7797 16.1667 20.625 15 20.625C13.8333 20.625 12.6771 20.7797 11.5312 21.0891C10.3854 21.3984 9.25 21.8625 8.125 22.4813C7.9375 22.5958 7.78646 22.7563 7.67188 22.9625C7.55729 23.1687 7.5 23.3979 7.5 23.65V24.75ZM15 13.75C15.6875 13.75 16.276 13.4807 16.7656 12.9422C17.2552 12.4036 17.5 11.7562 17.5 11C17.5 10.2438 17.2552 9.59635 16.7656 9.05781C16.276 8.51927 15.6875 8.25 15 8.25C14.3125 8.25 13.724 8.51927 13.2344 9.05781C12.7448 9.59635 12.5 10.2438 12.5 11C12.5 11.7562 12.7448 12.4036 13.2344 12.9422C13.724 13.4807 14.3125 13.75 15 13.75Z" fill="#1D1B20"/>
</svg>
