<svg width="30" height="33" viewBox="0 0 30 33" fill="none" xmlns="http://www.w3.org/2000/svg">
<path fill-rule="evenodd" clip-rule="evenodd" d="M11.5393 12.3559L14.5484 9.3649C15.9485 7.97319 17.8338 7.32842 19.7044 7.60157L23.6848 8.18279L29.2097 4.89788C29.5665 4.68566 30 4.96996 30 5.41628V16.5848C30 17.3453 29.6666 18.0591 29.1043 18.5017L25.3836 21.4303L21.357 17.7138C22.1659 17.3983 22.8568 16.8779 23.4268 16.2276C23.9402 15.6419 23.9248 14.7092 23.3923 14.1445C22.86 13.5797 22.0121 13.5967 21.4986 14.1824C21.1001 14.637 20.6395 14.9291 20.1006 15.0452C19.6309 15.1463 19.0329 15.1282 18.2809 14.8747L17.324 13.9915L14.6572 16.3655C13.6096 17.2981 12.0693 17.0988 11.247 15.9242C10.4832 14.8331 10.6105 13.2793 11.5393 12.3559ZM9.74346 10.1698L11.904 8.02215C10.9868 7.74686 10.0149 7.69045 9.05479 7.87332L5.12145 8.62245L0.806721 6.06813C0.442071 5.85226 0 6.14278 0 6.5983L4.39573e-05 16.5838C4.73726e-05 17.3802 0.357979 18.1251 0.956207 18.5736L12.6453 27.3387C14.1585 28.4735 16.1539 28.4525 17.647 27.2859L23.0162 23.0914L17.2932 17.8092L16.3423 18.6558C14.125 20.6296 10.8651 20.2078 9.1248 17.7219C7.50812 15.4126 7.7775 12.124 9.74346 10.1698Z" fill="black"/>
</svg>
