<svg width="15" height="11" viewBox="0 0 15 11" fill="none" xmlns="http://www.w3.org/2000/svg">
<path fill-rule="evenodd" clip-rule="evenodd" d="M0 5.4684C0 5.26126 0.0987549 5.06259 0.274539 4.91611C0.450324 4.76964 0.688739 4.68735 0.937336 4.68735H11.7973L7.77239 1.33504C7.59638 1.18838 7.4975 0.989458 7.4975 0.782047C7.4975 0.574635 7.59638 0.375718 7.77239 0.229056C7.94839 0.0823941 8.18711 0 8.43602 0C8.68493 0 8.92365 0.0823941 9.09965 0.229056L14.7237 4.91541C14.811 4.98797 14.8802 5.07416 14.9275 5.16905C14.9747 5.26394 14.999 5.36567 14.999 5.4684C14.999 5.57114 14.9747 5.67287 14.9275 5.76776C14.8802 5.86265 14.811 5.94884 14.7237 6.0214L9.09965 10.7078C8.92365 10.8544 8.68493 10.9368 8.43602 10.9368C8.18711 10.9368 7.94839 10.8544 7.77239 10.7078C7.59638 10.5611 7.4975 10.3622 7.4975 10.1548C7.4975 9.94735 7.59638 9.74844 7.77239 9.60177L11.7973 6.24947H0.937336C0.688739 6.24947 0.450324 6.16718 0.274539 6.0207C0.0987549 5.87422 0 5.67555 0 5.4684Z" fill="white"/>
</svg>
